<?xml version="1.0" standalone="no"?>
<!DOCTYPE svg PUBLIC "-//W3C//DTD SVG 20010904//EN"
 "http://www.w3.org/TR/2001/REC-SVG-20010904/DTD/svg10.dtd">
<svg version="1.0" xmlns="http://www.w3.org/2000/svg"
 width="225.000000pt" height="225.000000pt" viewBox="0 0 225.000000 225.000000"
 preserveAspectRatio="xMidYMid meet">

<g transform="translate(0.000000,225.000000) scale(0.100000,-0.100000)"
fill="#000000" stroke="none">
<path d="M1039 1613 c-1 -5 -2 -15 -3 -23 -1 -10 -15 -16 -43 -18 -35 -3 -43
-7 -43 -23 0 -16 -7 -19 -44 -19 -39 0 -45 -3 -48 -22 -3 -20 -9 -23 -48 -24
-40 -1 -45 -3 -42 -22 3 -20 -1 -22 -42 -22 -39 0 -45 -3 -48 -22 -2 -15 -11
-24 -25 -26 -15 -2 -23 -10 -23 -23 0 -14 -7 -19 -26 -19 -21 0 -25 4 -21 19
4 17 -1 20 -42 23 -39 3 -46 6 -49 26 -3 21 -7 22 -113 22 l-109 0 0 -155 0
-155 45 0 c38 0 45 3 45 20 0 17 7 20 45 20 41 0 45 2 45 25 0 23 4 25 45 25
41 0 45 -2 45 -25 0 -20 5 -25 24 -25 19 0 23 -4 19 -20 -5 -18 0 -20 41 -20
39 0 46 3 46 20 0 15 7 20 25 20 23 0 25 4 25 45 0 41 2 45 25 45 19 0 25 -5
25 -22 0 -23 2 -23 110 -20 101 3 110 5 110 23 0 12 7 19 19 19 13 0 21 8 23
23 l3 22 313 3 c304 2 312 3 312 22 0 19 7 20 180 20 l180 0 0 45 c0 41 2 45
25 45 24 0 25 2 25 64 0 59 -2 65 -22 68 -15 2 -24 11 -26 26 -5 33 -42 30
-42 -3 l0 -25 -427 2 -428 3 -3 23 c-3 18 -10 22 -43 22 -21 0 -40 -3 -40 -7z
m221 -107 l0 -24 -142 2 c-79 0 -152 -3 -163 -8 -11 -5 -34 -8 -52 -7 -30 2
-32 0 -36 -36 l-4 -38 -1 43 -2 42 45 0 c41 0 45 2 45 25 l0 25 155 0 155 0 0
-24z m65 4 c-3 -5 3 -11 12 -13 14 -4 13 -5 -4 -6 -17 -1 -23 5 -23 20 0 11 5
17 10 14 6 -4 8 -10 5 -15z m94 -7 c0 -11 -3 -13 -6 -5 -2 6 -14 12 -26 11
-21 0 -21 -1 -2 -10 19 -8 19 -9 1 -6 -34 4 -31 27 3 27 23 0 31 -4 30 -17z
m48 2 c0 -8 -4 -15 -9 -15 -4 0 -8 7 -8 15 0 8 4 15 8 15 5 0 9 -7 9 -15z m60
0 c0 -8 -4 -15 -9 -15 -4 0 -8 7 -8 15 0 8 4 15 8 15 5 0 9 -7 9 -15z m64 8
c-19 -4 -21 -7 -10 -14 11 -7 11 -9 1 -9 -7 0 -20 7 -28 15 -14 13 -11 15 23
14 26 -1 30 -3 14 -6z m46 -8 c0 -8 -4 -15 -9 -15 -4 0 -8 7 -8 15 0 8 4 15 8
15 5 0 9 -7 9 -15z m125 8 c-12 -2 -20 -9 -17 -14 4 -5 1 -9 -4 -9 -6 0 -11 7
-11 15 0 10 9 15 28 14 23 -2 24 -2 4 -6z m45 -8 c0 -8 -4 -15 -9 -15 -4 0 -8
7 -8 15 0 8 4 15 8 15 5 0 9 -7 9 -15z m56 8 c-7 -2 -21 -2 -30 0 -10 3 -4 5
12 5 17 0 24 -2 18 -5z m54 -8 c0 -8 -4 -15 -9 -15 -4 0 -8 7 -8 15 0 8 4 15
8 15 5 0 9 -7 9 -15z m60 0 c0 -8 -4 -15 -9 -15 -4 0 -8 7 -8 15 0 8 4 15 8
15 5 0 9 -7 9 -15z m43 0 c0 -8 -7 -15 -15 -15 -8 0 -15 7 -15 15 0 8 7 15 15
15 8 0 15 -7 15 -15z m-790 -47 c0 -4 -4 -8 -9 -8 -6 0 -12 4 -15 8 -3 5 1 9
9 9 8 0 15 -4 15 -9z m-41 -33 c3 -4 -1 -5 -9 -3 -8 2 -14 -3 -12 -9 1 -8 -8
-13 -20 -13 -19 0 -20 2 -8 10 12 8 11 10 -7 10 -13 0 -23 -6 -24 -12 0 -10
-2 -10 -6 0 -6 14 -83 17 -83 2 0 -5 -5 -10 -11 -10 -5 0 -8 4 -5 9 7 11 -22
23 -36 14 -6 -3 -9 -2 -6 3 7 10 217 9 227 -1z m431 -10 c0 -13 -24 -15 -155
-15 -131 0 -155 2 -155 15 0 13 24 15 155 15 131 0 155 -2 155 -15z m-640 -11
c0 -2 -9 -4 -20 -4 -11 0 -20 4 -20 9 0 5 9 7 20 4 11 -3 20 -7 20 -9z m270 6
c0 -5 -4 -10 -10 -10 -5 0 -10 5 -10 10 0 6 5 10 10 10 6 0 10 -4 10 -10z
m-187 -7 c-7 -2 -19 -2 -25 0 -7 3 -2 5 12 5 14 0 19 -2 13 -5z m150 0 c-7 -2
-19 -2 -25 0 -7 3 -2 5 12 5 14 0 19 -2 13 -5z m-223 -118 c0 -25 -1 -25 -90
-25 -89 0 -90 0 -90 25 0 25 1 25 90 25 89 0 90 0 90 -25z"/>
</g>
</svg>
